<?xml version="1.0" encoding="utf-8"?>
<!-- Generator: Adobe Illustrator 26.5.0, SVG Export Plug-In . SVG Version: 6.00 Build 0)  -->
<svg version="1.1" id="Layer_1" xmlns="http://www.w3.org/2000/svg" xmlns:xlink="http://www.w3.org/1999/xlink" x="0px" y="0px"
	 viewBox="0 0 614.99 612" style="enable-background:new 0 0 614.99 612;" xml:space="preserve">
<g>
	<path d="M387.19,579.2c-5.79,0.48-11.35,0.93-17.1,1.4c-0.62-7.72-1.22-15.14-1.81-22.56c-0.59-7.42-1.16-14.85-1.74-22.24
		c-2.88,0.15-5.56,0.39-8.25,0.4c-14.71,0.02-25.98-11.22-26.07-25.95c-0.02-3.05,0-6.09,0-9.02c-6.37,2.06-12.43,4.48-18.72,5.98
		c-45.94,10.95-86.61,0.66-121.2-31.5c-22.29-20.73-34.85-46.82-38.76-76.99c-0.67-5.21-0.86-10.5-0.96-15.76
		c-0.15-8.4-0.04-16.81-0.04-25.44c-39.93,0-79.7,0-119.63,0c0-5.82,0-11.4,0-17.19c8.46,0,16.84,0,25.38,0c0-11.43,0-22.66,0-34.13
		c-8.41,0-16.78,0-25.35,0c0-5.81,0-11.39,0-17.19c8.38,0,16.76,0,25.32,0c0-14.29,0-28.35,0-42.65c-8.36,0-16.73,0-25.31,0
		c0-5.8,0-11.37,0-17.18c8.36,0,16.73,0,25.42,0c0-11.51,0-22.8,0-34.21c5.84,0,11.37,0,17.2,0c0,11.29,0,22.58,0,33.98
		c5.82,0,11.34,0,17.09,0c0-11.32,0-22.55,0-33.94c5.81,0,11.39,0,17.19,0c0,11.28,0,22.51,0,33.91c5.73,0,11.25,0,17,0
		c0-11.25,0-22.48,0-33.89c5.81,0,11.39,0,17.2,0c0,11.23,0,22.47,0,33.95c8.59,0,16.96,0,25.49,0c0,5.83,0,11.41,0,17.23
		c-8.41,0-16.78,0-25.28,0c0,14.31,0,28.39,0,42.69c8.44,0,16.81,0,25.32,0c0,5.76,0,11.29,0,17.08c-8.34,0-16.7,0-25.26,0
		c0,11.48,0,22.7,0,34.16c8.27,0,16.64,0,25.64,0c0,18.61,0,36.99,0,55.37c0.26,0.05,0.52,0.1,0.77,0.16
		c0.39-0.36,0.78-0.71,1.16-1.07c5.1-4.81,9.94-9.95,15.37-14.36c8.64-7.02,12.83-8.27,24.74-8.89c0.97-22,1.95-44.03,2.94-66.35
		c17.16,0.76,34.14,1.5,51.35,2.26c-0.71,16.21-1.41,32.18-2.14,48.88c5.71-6.64,11.02-12.8,16.49-19.16
		c12.96,11.15,25.86,22.25,38.96,33.51c-0.54,0.66-1.03,1.27-1.53,1.85c-14.84,17.25-29.66,34.51-44.55,51.72
		c-1.12,1.29-1.2,2.08-0.15,3.47c12,15.98,23,32.63,33.5,49.63c2.43,3.93,3.77,8.19,4.13,12.95c7.22-1.97,13.92-4.63,20.32-7.99
		c0.5-0.26,0.83-1.28,0.85-1.97c0.09-3,0.04-6,0.04-9c0-26.49,0-52.98,0-79.47c0-15.27,5.82-27.79,18.1-36.95
		c4.66-3.48,9.7-6.59,14.92-9.15c8.12-3.99,16.54-7.38,24.84-11.02c0.72-0.32,1.44-0.65,1.7-0.77c-1.34-6.42-2.63-12.6-3.97-19.02
		c-1.03,0-2.48,0-3.81,0c-0.2-0.28-0.36-0.4-0.35-0.52c0.11-9.98-1.12-20.05,2-29.84c5.87-18.46,24.52-31.2,43.45-29.62
		c20.49,1.7,36.92,16.41,39.48,36.12c1.01,7.77,0.58,15.72,0.81,23.79c-1.88,0-3.32,0-4.33,0c-1.39,6.58-2.73,12.89-4.13,19.5
		c4.44,1.84,9.41,3.93,14.41,5.94c0.7,0.28,1.59,0.14,2.39,0.14c33.29,0,66.59,0,99.88,0c0.86,0,1.73,0,2.73,0
		c0,5.78,0,11.37,0,17.18c-24.66,0-49.19,0-74.16,0c0.72,0.79,1.12,1.27,1.55,1.7c8.5,8.42,12.7,18.71,12.73,30.56
		c0.1,40.54,0.07,81.08,0.02,121.61c-0.01,12.76-10.59,23.97-23.31,24.78c-3.54,0.23-7.11,0.03-10.76,0.03
		c-1.19,14.49-2.42,29.34-3.67,44.48c-5.78-0.47-11.35-0.93-17.11-1.4c0.48-5.89,0.88-11.56,1.4-17.22
		c1.37-14.79,2.24-29.58,2.15-44.46c-0.24-40.9-0.08-81.81-0.08-122.71c0-0.57,0.08-1.13,0.12-1.79c5.66,0,11.19,0,17.04,0
		c0,0.95,0,1.86,0,2.78c0,37.68,0,75.37,0,113.05c0,0.51,0,1.02,0,1.54c0.04,6.46,1.98,8.64,7.69,8.63
		c5.92-0.01,9.36-3.36,9.37-9.15c0-39.51-0.04-79.03,0.03-118.54c0.02-10.37-3.96-18.6-12.73-24.02
		c-6.07-3.75-12.54-6.89-19.01-9.92c-6.55-3.06-13.34-5.6-19.98-8.45c-1.22-0.52-2.02-0.48-3.11,0.38
		c-13.9,10.99-30.73,10.88-44.58-0.15c-0.65-0.52-1.93-0.91-2.6-0.62c-9.93,4.28-19.85,8.58-29.67,13.11
		c-3.36,1.55-6.52,3.62-9.62,5.68c-8.52,5.65-12.67,13.63-12.65,23.89c0.05,39.59,0.01,79.17,0.03,118.76
		c0,7.77,6.76,10.48,13.39,8.5c2.19-0.65,3.09-2.6,3.43-4.72c0.18-1.15,0.16-2.33,0.16-3.5c0.01-38.12,0.01-76.25,0.01-114.37
		c0-0.93,0-1.86,0-2.88c5.81,0,11.34,0,17.2,0c0,1.05,0,2.05,0,3.04c0,42.37,0.12,84.74-0.07,127.1
		c-0.06,13.5,1.27,26.87,2.31,40.28C386.3,568.59,386.74,573.75,387.19,579.2z M280.78,494.44c3.58-0.21,7.15-0.49,10.73-0.6
		c1.76-0.05,2.5-1.01,2.24-2.47c-0.32-1.82-0.72-3.8-1.7-5.32c-7.3-11.38-14.52-22.83-22.21-33.95
		c-12.11-17.52-25.06-34.41-40.23-49.47c-4.78-4.75-9.8-9.22-15.78-12.48c-3.71-2.02-7.44-2.31-11.02,0
		c-3.18,2.05-6.51,4.08-9.13,6.75c-5.89,5.98-11.36,12.38-17.06,18.55c-1.2,1.3-1.3,2.47-0.73,4.12
		C191.2,463.95,233.75,494.3,280.78,494.44z M452.06,297.44c-0.34-9.26-4.12-16.51-11.81-21.38c-9.04-5.72-18.44-5.75-27.5-0.09
		c-7.77,4.86-11.63,12.15-11.95,21.47C417.97,297.44,434.88,297.44,452.06,297.44z M230.96,322.91c0,3.48,0.11,6.68-0.02,9.87
		c-0.63,15.04-1.34,30.08-1.97,45.13c-0.03,0.77,0.17,1.85,0.69,2.3c2.59,2.23,5.32,4.3,8.16,6.55c2.34-2.72,4.74-5.36,6.95-8.15
		c0.7-0.89,1.22-2.16,1.27-3.28c0.75-14.82,1.41-29.64,2.06-44.46c0.1-2.37,0.01-4.75,0.01-7.2
		C242.58,323.41,237.2,323.18,230.96,322.91z M261.34,411.9c11.4-13.26,22.67-26.36,34.03-39.56c-4.36-3.75-8.55-7.36-12.88-11.09
		c-10.85,12.61-21.6,25.11-32.41,37.67C253.82,403.23,257.5,407.47,261.34,411.9z M447.22,314.86c-13.98,0-27.62,0-41.53,0
		c0.38,9.48,3.46,17.43,11.57,22.7c6.15,4,13.58,3.65,19.53-0.78C444.02,331.38,446.77,323.78,447.22,314.86z M75.79,246.35
		c0,14.28,0,28.34,0,42.44c5.68,0,11.2,0,16.83,0c0-14.19,0-28.26,0-42.44C86.97,246.35,81.45,246.35,75.79,246.35z M110,288.75
		c5.76,0,11.28,0,16.79,0c0-14.24,0-28.31,0-42.36c-5.7,0-11.22,0-16.79,0C110,260.58,110,274.6,110,288.75z M92.6,340.2
		c0-11.45,0-22.66,0-33.99c-5.66,0-11.18,0-16.79,0c0,11.39,0,22.66,0,33.99C81.45,340.2,86.92,340.2,92.6,340.2z M110.07,306.21
		c0,11.48,0,22.69,0,33.91c5.67,0,11.18,0,16.69,0c0-11.4,0-22.66,0-33.91C121.1,306.21,115.64,306.21,110.07,306.21z"/>
	<path d="M383.61,220.56c0,10.45,0,20.52,0,30.91c-1-0.48-1.72-0.8-2.42-1.15c-19.15-9.57-38.3-19.16-57.48-28.67
		c-1.31-0.65-2.9-1.04-4.36-1.04c-35.49-0.06-70.98-0.03-106.46-0.05c-16.44-0.01-30.1-10.78-33.74-26.62
		c-0.55-2.4-0.8-4.92-0.8-7.39c-0.05-40.1-0.05-80.2-0.03-120.29c0.01-17.92,14.12-32.86,31.97-33.89c1.82-0.11,3.65-0.16,5.48-0.16
		c61.1-0.01,122.2,0.01,183.29-0.02c7.99,0,15.4,1.79,21.84,6.64c9.1,6.85,14.03,15.97,14.05,27.44
		c0.06,39.95,0.03,79.9,0.02,119.85c0,19.19-14.93,34.25-34.14,34.44c-4.83,0.05-9.66,0.01-14.49,0.01
		C385.55,220.56,384.76,220.56,383.61,220.56z M366.44,203.36c1.08,0,1.86,0,2.64,0c10.46,0,20.93,0.05,31.39-0.02
		c9.8-0.06,17.29-7.4,17.3-16.95c0.03-40.03,0.01-80.05,0.01-120.08c0-4.63-1.74-8.54-4.95-11.82c-3.91-3.99-8.79-5.1-14.21-5.09
		c-61.32,0.05-122.64,0.03-183.96,0.03c-0.88,0-1.76,0.03-2.63,0.07c-9.51,0.39-16.53,7.68-16.53,17.25
		c-0.01,39.73-0.01,79.47,0.01,119.2c0,1.24,0.05,2.5,0.3,3.71c1.74,8.37,8.62,13.7,17.65,13.7c36.51,0.01,73.03-0.02,109.54,0.06
		c1.81,0,3.77,0.49,5.4,1.29c11.94,5.87,23.81,11.88,35.7,17.83c0.69,0.34,1.41,0.63,2.34,1.04
		C366.44,216.77,366.44,210.27,366.44,203.36z"/>
	<path d="M434.8,579.85c-5.73,0-11.26,0-16.9,0c0-19.92,0-39.73,0-59.72c5.58,0,11.16,0,16.9,0
		C434.8,539.99,434.8,559.85,434.8,579.85z"/>
	<path d="M297.95,579.89c-5.66,0-11.21,0-16.89,0c0-5.67,0-11.26,0-16.97c5.63,0,11.16,0,16.89,0
		C297.95,568.5,297.95,574.07,297.95,579.89z"/>
	<path d="M186.91,520.06c5.62,0,11.14,0,16.85,0c0,5.61,0,11.19,0,16.93c-5.55,0-11.14,0-16.85,0
		C186.91,531.36,186.91,525.77,186.91,520.06z"/>
	<path d="M49.78,485.72c-5.7,0-11.22,0-16.88,0c0-5.65,0-11.17,0-16.9c5.55,0,11.12,0,16.88,0
		C49.78,474.37,49.78,479.95,49.78,485.72z"/>
	<path d="M161.13,485.87c0,5.64,0,11.16,0,16.89c-5.56,0-11.14,0-16.88,0c0-5.57,0-11.15,0-16.89
		C149.85,485.87,155.43,485.87,161.13,485.87z"/>
	<path d="M537.73,485.84c5.77,0,11.29,0,16.95,0c0,5.7,0,11.28,0,16.96c-5.69,0-11.28,0-16.95,0
		C537.73,497.11,537.73,491.58,537.73,485.84z"/>
	<path d="M84.2,520.04c5.74,0,11.26,0,16.93,0c0,5.7,0,11.29,0,16.98c-5.65,0-11.24,0-16.93,0C84.2,531.35,84.2,525.82,84.2,520.04z
		"/>
	<path d="M580.39,417.48c0,5.72,0,11.25,0,16.91c-5.64,0-11.16,0-16.88,0c0-5.6,0-11.17,0-16.91
		C569.05,417.48,574.64,417.48,580.39,417.48z"/>
	<path d="M118.26,443.1c0,5.75,0,11.27,0,16.91c-5.65,0-11.18,0-16.88,0c0-5.6,0-11.18,0-16.91
		C106.98,443.1,112.56,443.1,118.26,443.1z"/>
	<path d="M537.77,383.24c5.65,0,11.18,0,16.87,0c0,5.61,0,11.19,0,16.92c-5.58,0-11.16,0-16.87,0
		C537.77,394.56,537.77,389.05,537.77,383.24z"/>
	<path d="M144.19,554.12c0-5.7,0-11.22,0-16.91c5.63,0,11.2,0,16.92,0c0,5.64,0,11.21,0,16.91
		C155.48,554.12,149.96,554.12,144.19,554.12z"/>
	<path d="M571.83,537.18c0,5.69,0,11.21,0,16.9c-5.65,0-11.22,0-16.93,0c0-5.63,0-11.21,0-16.9
		C560.53,537.18,566.04,537.18,571.83,537.18z"/>
	<path d="M255.14,562.75c-5.71,0-11.24,0-16.89,0c0-5.64,0-11.17,0-16.88c5.56,0,11.14,0,16.89,0
		C255.14,551.4,255.14,556.99,255.14,562.75z"/>
	<path d="M212.47,562.96c0,5.72,0,11.24,0,16.88c-5.64,0-11.17,0-16.88,0c0-5.57,0-11.15,0-16.88
		C201.13,562.96,206.72,562.96,212.47,562.96z"/>
	<path d="M67.17,374.61c5.71,0,11.24,0,16.89,0c0,5.64,0,11.17,0,16.87c-5.58,0-11.16,0-16.89,0
		C67.17,385.87,67.17,380.24,67.17,374.61z"/>
	<path d="M529.06,562.93c0,5.65,0,11.17,0,16.87c-5.61,0-11.19,0-16.92,0c0-5.58,0-11.16,0-16.87
		C517.79,562.93,523.37,562.93,529.06,562.93z"/>
	<path d="M220.97,417.52c0,5.67,0,11.19,0,16.87c-5.67,0-11.25,0-16.95,0c0-5.63,0-11.15,0-16.87
		C209.61,417.52,215.18,417.52,220.97,417.52z"/>
	<path d="M246.71,443.12c0,5.68,0,11.2,0,16.86c-5.69,0-11.27,0-16.97,0c0-5.63,0-11.16,0-16.86
		C235.33,443.12,240.91,443.12,246.71,443.12z"/>
	<path d="M366.55,126.47c0.06,33.87-28.01,60.25-60.76,59.85c-32.48-0.4-59.09-27.08-59.08-60c0.01-33.36,26.81-59.84,60.54-59.81
		C339.9,66.55,366.56,93.5,366.55,126.47z M294,126.54c-7.72-7.73-15.45-15.47-23.16-23.19c-9.9,13.66-8.64,34.93,0.18,46.15
		C278.71,141.82,286.41,134.13,294,126.54z M283.75,90.5c7.69,7.76,15.43,15.56,22.82,23.01c7.62-7.61,15.35-15.33,23.05-23.03
		C315.79,80.89,295.58,81.85,283.75,90.5z M342.47,103.27c-7.82,7.82-15.56,15.55-23.42,23.4c7.27,7.25,14.66,14.63,22.05,22.01
		c0.35,0.35,0.73,0.68,1.1,1.03C350.88,138.05,352.45,117.83,342.47,103.27z M329.7,162.26c-7.81-7.85-15.53-15.59-23.01-23.11
		c-7.64,7.62-15.38,15.35-23.1,23.05C295.88,171.08,316.05,171.75,329.7,162.26z"/>
</g>
</svg>
