<?xml version="1.0" encoding="utf-8"?>
<!-- Generator: Adobe Illustrator 26.5.0, SVG Export Plug-In . SVG Version: 6.00 Build 0)  -->
<svg version="1.1" id="Layer_1" xmlns="http://www.w3.org/2000/svg" xmlns:xlink="http://www.w3.org/1999/xlink" x="0px" y="0px"
	 viewBox="0 0 792 612" style="enable-background:new 0 0 792 612;" xml:space="preserve" fill="#ffffff">
<g>
	<path d="M393.38,386.78c13.53-2.06,24.39-12.96,26.51-26.63c2.61-16.8-9.38-33.17-26.3-35.88c-2.29-0.37-5.64-0.51-7.46-0.31
		l-3.31,0.36l-8.12-6.7c-7.87-6.5-35.28-28.5-44.54-35.75c-2.51-1.97-10.63-8.33-18.03-14.14c-11.31-8.88-41.1-31.43-46.23-35.01
		c-11.38-7.93-17.02-11.24-17.81-10.45c-0.55,0.55,2.23,4.8,8.06,12.34c4.9,6.33,10.29,12.87,28.84,34.94
		c6.21,7.39,42.74,49.24,44.63,51.13c0.17,0.17,2.33,2.59,4.81,5.4c2.48,2.8,8.6,9.64,13.61,15.19l9.1,10.09l0.28,5.85
		c0.32,6.76,1.64,10.79,5.35,16.35C369.1,383.04,381.82,388.54,393.38,386.78z"/>
	<path d="M578.54,196.42c22.04-22.02,23.6-23.46,24.55-22.52c2.13,2.12,10.29,12.11,15.05,18.44c24.64,32.76,42.01,70.9,50.83,110.9
		c9.19,3.28,17.63,8.17,24.84,14.52c4,3.52,7.54,7.4,10.61,11.61c-0.01-0.09-0.02-0.18-0.03-0.27
		c-8-70.99-38.98-136.13-88.87-186.85c-13.13-13.35-28.82-26.9-41.52-35.87c-49.04-34.63-99.83-53.23-160.23-58.7
		c-11.77-1.07-41.32-0.89-53.8,0.32c-45.06,4.37-86.29,16.89-123.85,37.61C216.33,96.52,198.36,109,180.84,124
		c-8.56,7.33-26.64,25.53-34.17,34.42c-37.62,44.35-61.75,95.92-71.29,152.34c-3.25,19.21-4.52,35.52-4.53,58.31l-0.01,10.82h97.38
		l0.32-30.36h-33.37c-32,0-33.37-0.05-33.37-1.11c0-2.44,1.86-20.33,2.69-25.84c5.59-37.22,18.63-73.6,37.75-105.27
		c9.5-15.75,20.88-31.36,30.65-42.04l2.4-2.62l23.5,23.52l23.5,23.53l10.83-10.83l10.83-10.83l-23.37-23.36
		c-12.86-12.85-23.28-23.6-23.17-23.89c0.75-1.9,23.4-19.54,33.62-26.17c32.6-21.18,65.2-34.43,103.09-41.92
		c9.14-1.81,24.51-3.89,34.11-4.62l5.26-0.4v66.89l30.14-0.32l0.02-32.91c0.01-19.96,0.24-33.05,0.58-33.26
		c0.77-0.48,13.94,0.71,24.57,2.21c53.77,7.6,105.46,30.96,146.08,66.01c2.48,2.14,4.72,4.07,4.99,4.29
		c0.26,0.22-10.15,10.98-23.14,23.91l-23.62,23.52l10.95,10.97l10.95,10.96L578.54,196.42z"/>
	<path d="M666.21,430.14c18.91-8.08,34.2-25.74,34.74-54.24c-0.77-40.84-31.85-59.45-60.43-59.45c-28.58,0-59.67,18.6-60.44,59.45
		c0.54,28.5,15.84,46.16,34.74,54.24c-37.84,7.75-65.47,33.28-65.47,74.71v37.11h182.33v-37.11
		C731.68,463.42,704.04,437.89,666.21,430.14z"/>
	<path d="M148.79,501.96c-3.35-3.59-7.59-6.88-12.73-9.88c10.33-1.5,18.1-5.13,23.29-10.88c5.19-5.76,7.79-13.05,7.79-21.89
		c0-6.96-1.71-13.15-5.14-18.56c-3.43-5.41-7.99-9.17-13.7-11.29c-5.7-2.12-14.85-3.17-27.43-3.17H70.83v117.76h23.78v-49.16h4.82
		c5.46,0,9.45,0.44,11.97,1.33c2.52,0.88,4.9,2.52,7.15,4.9c2.25,2.38,6.43,8.15,12.53,17.31l17.19,25.63h28.44l-14.38-22.97
		C156.65,511.92,152.13,505.55,148.79,501.96z M112.2,476.1H94.61v-29.88h18.56c9.64,0,15.42,0.13,17.35,0.4
		c3.86,0.64,6.84,2.18,8.96,4.62c2.12,2.44,3.17,5.64,3.17,9.6c0,3.53-0.8,6.48-2.41,8.84c-1.61,2.36-3.83,4.02-6.67,4.98
		C130.73,475.61,123.61,476.1,112.2,476.1z"/>
	<rect x="201.97" y="426.29" width="23.78" height="117.76"/>
	<path d="M330.27,479.03c-5.54-2.92-14.1-5.74-25.66-8.47c-11.57-2.73-18.85-5.35-21.85-7.87c-2.36-1.98-3.53-4.36-3.53-7.15
		c0-3.05,1.26-5.49,3.78-7.31c3.91-2.84,9.32-4.26,16.23-4.26c6.69,0,11.71,1.33,15.06,3.98c3.35,2.65,5.53,7,6.55,13.05l23.78-1.04
		c-0.38-10.82-4.3-19.47-11.77-25.95c-7.47-6.48-18.6-9.72-33.38-9.72c-9.05,0-16.78,1.37-23.17,4.1c-6.4,2.73-11.3,6.71-14.7,11.93
		c-3.4,5.22-5.1,10.83-5.1,16.83c0,9.32,3.61,17.22,10.84,23.7c5.14,4.61,14.08,8.49,26.83,11.65c9.91,2.46,16.25,4.18,19.04,5.14
		c4.07,1.45,6.92,3.15,8.56,5.1c1.63,1.96,2.45,4.32,2.45,7.11c0,4.34-1.94,8.13-5.82,11.37c-3.88,3.24-9.65,4.86-17.31,4.86
		c-7.23,0-12.97-1.82-17.23-5.46c-4.26-3.64-7.08-9.34-8.47-17.11l-23.13,2.25c1.55,13.17,6.32,23.2,14.3,30.08
		c7.98,6.88,19.41,10.32,34.3,10.32c10.23,0,18.77-1.43,25.62-4.3c6.85-2.86,12.16-7.24,15.9-13.13c3.75-5.89,5.62-12.21,5.62-18.96
		c0-7.44-1.57-13.7-4.7-18.76C340.15,485.94,335.82,481.95,330.27,479.03z"/>
	<polygon points="481.95,426.29 449.98,426.29 401.94,478.59 401.94,426.29 378.17,426.29 378.17,544.05 401.94,544.05
		401.94,508.47 421.22,488.79 453.59,544.05 484.36,544.05 437.61,472.16 	"/>
</g>
</svg>
