<?xml version="1.0" encoding="utf-8"?>
<!-- Generator: Adobe Illustrator 26.5.0, SVG Export Plug-In . SVG Version: 6.00 Build 0)  -->
<svg version="1.1" id="Layer_1" xmlns="http://www.w3.org/2000/svg" xmlns:xlink="http://www.w3.org/1999/xlink" x="0px" y="0px"
	 viewBox="0 0 464 612" style="enable-background:new 0 0 464 612;" xml:space="preserve" fill="#ffffff">
<g>
	<path d="M395.44,178.19c-50.74,0-101.16,0-151.76,0c0-0.93,0-1.72,0-2.51c0-19.58,0.01-39.16,0-58.74c0-4.7-2.6-8.43-6.76-9.81
		c-6.56-2.16-13.03,2.63-13.04,9.73c-0.03,19.64-0.01,39.28-0.01,58.92c0,0.78,0,1.56,0,2.43c-50.67,0-101.1,0-151.76,0
		c0-0.9,0-1.69,0-2.47c0-19.27,0-38.54-0.01-57.81c0-1.11,0.02-2.24-0.2-3.32c-1.05-5.18-5.56-8.42-10.89-7.9
		c-5.05,0.5-8.73,4.76-8.73,10.26c-0.02,20.75-0.02,41.5,0.02,62.26c0,1.47,0.19,2.97,0.53,4.4c2.13,8.93,9.55,14.54,19.17,14.54
		c107.78,0,215.55,0,323.33,0c0.62,0,1.24,0,1.85-0.02c9.72-0.3,17.98-8.38,18.05-18.13c0.13-21.25,0.06-42.49,0.02-63.74
		c0-2.85-1.14-5.32-3.33-7.17c-3.16-2.68-6.77-3.27-10.55-1.61c-3.96,1.73-5.9,4.97-5.9,9.26c-0.03,19.64-0.01,39.28-0.01,58.92
		C395.44,176.48,395.44,177.27,395.44,178.19z M160.76,590c48.76,0,97.33,0,146.1,0c0-0.85,0-1.58,0-2.31
		c0-15.13,0.13-30.26-0.03-45.39c-0.23-22.56-9.2-41.07-26.69-55.24c-17.9-14.5-38.75-17.98-60.82-14.32
		c-33.44,5.55-57.78,33.97-58.55,67.85c-0.37,16.11-0.09,32.23-0.1,48.35C160.67,589.24,160.72,589.54,160.76,590z M293.79,394.67
		c0.01-33.2-26.71-60.02-59.87-60.08c-33.25-0.06-60.15,26.74-60.19,59.97c-0.04,33.21,26.85,60.11,60.08,60.09
		C266.97,454.62,293.78,427.82,293.79,394.67z M391.39,57.71c-0.92,0.77-1.78,1.39-2.52,2.12c-3.22,3.15-6.45,6.29-9.59,9.53
		c-3.24,3.34-3.74,8.23-1.38,12.12c2.3,3.8,6.91,5.68,11.23,4.25c1.69-0.56,3.35-1.64,4.63-2.89c3.84-3.73,7.48-7.66,11.3-11.62
		c0.91,0.86,1.45,1.34,1.96,1.85c3.42,3.39,6.8,6.82,10.25,10.17c4.08,3.97,10.27,3.95,14.14,0.03c3.81-3.86,3.78-9.98-0.1-14.01
		c-1.41-1.47-2.89-2.87-4.33-4.31c-2.47-2.47-4.94-4.95-7.48-7.51c0.57-0.6,1.02-1.1,1.5-1.57c3.41-3.4,6.85-6.76,10.23-10.2
		c3.98-4.04,4.02-10.27,0.14-14.15c-3.9-3.91-10.04-3.87-14.13,0.13c-3.18,3.1-6.33,6.24-9.46,9.4c-0.77,0.78-1.38,1.71-2.48,3.08
		c-0.92-1.26-1.35-2.04-1.95-2.65c-3.3-3.33-6.62-6.65-9.98-9.92c-3.28-3.2-7.87-3.83-11.77-1.71c-5.83,3.17-6.92,10.93-2.17,15.78
		C383.25,49.54,387.13,53.42,391.39,57.71z M76.43,57.42c3.82-3.85,7.49-7.59,11.2-11.29c4.32-4.3,4.61-10.5,0.64-14.55
		c-4.02-4.11-10.16-3.95-14.54,0.38c-3.38,3.34-6.74,6.71-10.11,10.06c-0.46,0.46-0.95,0.88-1.66,1.52
		c-3.94-4.03-7.69-7.96-11.54-11.79c-4.15-4.13-10.33-4.17-14.27-0.2c-3.92,3.95-3.8,10.11,0.31,14.28
		c1.91,1.93,3.86,3.82,5.78,5.74c1.91,1.91,3.81,3.83,5.8,5.83c-0.56,0.59-1.01,1.09-1.48,1.56c-3.46,3.44-6.96,6.83-10.36,10.33
		c-3.9,4.01-3.87,10.16-0.05,14.01c3.82,3.85,9.96,3.88,14.02,0.03c1.61-1.53,3.19-3.1,4.73-4.7c2.34-2.43,4.65-4.9,7.3-7.71
		c1.4,1.58,2.37,2.78,3.45,3.87c2.86,2.9,5.72,5.81,8.67,8.62c3.11,2.96,7.38,3.6,11.16,1.83c3.73-1.75,5.85-5.47,5.56-9.83
		c-0.17-2.6-1.36-4.69-3.17-6.5C84.06,65.12,80.29,61.31,76.43,57.42z M231.8,62.95c-0.48-0.68-0.84-1.35-1.35-1.88
		c-3.38-3.51-6.77-7.02-10.21-10.47c-4.02-4.03-10.17-4.11-14.14-0.25c-3.89,3.78-4.01,9.95-0.13,14
		c5.72,5.97,11.49,11.9,17.33,17.76c4.75,4.76,11.02,4.9,16.11,0.51c13.98-12.05,27.96-24.1,41.93-36.15
		c4.54-3.92,5.2-10.1,1.56-14.34c-3.77-4.38-9.89-4.68-14.53-0.68c-8.28,7.13-16.55,14.27-24.82,21.4
		C239.76,56.1,235.98,59.35,231.8,62.95z M223.53,292.54c0,6.82,0,13.46,0,20.19c6.86,0,13.64,0,20.4,0c0-6.82,0-13.46,0-20.19
		C237.13,292.54,230.43,292.54,223.53,292.54z M223.57,217.41c0,6.9,0,13.54,0,20.22c6.86,0,13.6,0,20.41,0c0-6.79,0-13.44,0-20.22
		C237.15,217.41,230.4,217.41,223.57,217.41z M223.6,255.01c0,6.88,0,13.51,0,20.1c6.88,0,13.62,0,20.31,0c0-6.81,0-13.44,0-20.1
		C237.07,255.01,230.37,255.01,223.6,255.01z"/>
	<path d="M395.44,178.19c0-0.92,0-1.71,0-2.5c0-19.64-0.01-39.28,0.01-58.92c0.01-4.29,1.95-7.52,5.9-9.26
		c3.78-1.65,7.39-1.07,10.55,1.61c2.19,1.85,3.33,4.32,3.33,7.17c0.03,21.25,0.11,42.49-0.02,63.74
		c-0.06,9.74-8.32,17.82-18.05,18.13c-0.62,0.02-1.24,0.02-1.85,0.02c-107.78,0-215.55,0-323.33,0c-9.62,0-17.04-5.61-19.17-14.54
		c-0.34-1.43-0.53-2.93-0.53-4.4c-0.03-20.75-0.04-41.5-0.02-62.26c0.01-5.5,3.69-9.77,8.73-10.26c5.32-0.52,9.84,2.72,10.89,7.9
		c0.22,1.08,0.2,2.21,0.2,3.32c0.01,19.27,0.01,38.54,0.01,57.81c0,0.79,0,1.57,0,2.47c50.66,0,101.08,0,151.76,0
		c0-0.87,0-1.65,0-2.43c0-19.64-0.02-39.28,0.01-58.92c0.01-7.1,6.48-11.89,13.04-9.73c4.17,1.37,6.76,5.1,6.76,9.81
		c0.01,19.58,0,39.16,0,58.74c0,0.79,0,1.58,0,2.51C294.28,178.19,344.7,178.19,395.44,178.19z"/>
	<path d="M160.76,590c-0.04-0.46-0.09-0.76-0.09-1.06c0.01-16.12-0.27-32.24,0.1-48.35c0.78-33.89,25.12-62.3,58.55-67.85
		c22.06-3.66,42.92-0.18,60.82,14.32c17.49,14.17,26.46,32.69,26.69,55.24c0.15,15.13,0.03,30.26,0.03,45.39c0,0.73,0,1.45,0,2.31
		C258.09,590,209.52,590,160.76,590z"/>
	<path d="M293.79,394.67c-0.01,33.15-26.82,59.96-59.98,59.98c-33.23,0.02-60.11-26.87-60.08-60.09
		c0.04-33.23,26.93-60.03,60.19-59.97C267.07,334.65,293.8,361.46,293.79,394.67z"/>
	<path d="M391.39,57.71c-4.25-4.29-8.13-8.17-11.97-12.09c-4.74-4.85-3.66-12.61,2.17-15.78c3.9-2.12,8.49-1.49,11.77,1.71
		c3.36,3.27,6.68,6.59,9.98,9.92c0.6,0.61,1.03,1.38,1.95,2.65c1.1-1.38,1.71-2.31,2.48-3.08c3.12-3.16,6.28-6.3,9.46-9.4
		c4.1-4,10.24-4.03,14.13-0.13c3.87,3.88,3.84,10.11-0.14,14.15c-3.38,3.43-6.82,6.8-10.23,10.2c-0.47,0.47-0.92,0.96-1.5,1.57
		c2.55,2.55,5.01,5.04,7.48,7.51c1.44,1.44,2.92,2.85,4.33,4.31c3.87,4.03,3.9,10.15,0.1,14.01c-3.86,3.92-10.06,3.94-14.14-0.03
		c-3.45-3.36-6.84-6.78-10.25-10.17c-0.51-0.51-1.05-0.99-1.96-1.85c-3.82,3.96-7.47,7.89-11.3,11.62
		c-1.28,1.25-2.94,2.33-4.63,2.89c-4.32,1.44-8.93-0.45-11.23-4.25c-2.36-3.9-1.86-8.78,1.38-12.12c3.14-3.23,6.37-6.37,9.59-9.53
		C389.61,59.1,390.47,58.48,391.39,57.71z"/>
	<path d="M76.43,57.42c3.86,3.89,7.63,7.7,11.43,11.49c1.81,1.81,3,3.9,3.17,6.5c0.28,4.35-1.83,8.07-5.56,9.83
		c-3.77,1.77-8.04,1.13-11.16-1.83c-2.95-2.81-5.81-5.72-8.67-8.62c-1.08-1.09-2.05-2.29-3.45-3.87c-2.65,2.81-4.95,5.28-7.3,7.71
		c-1.54,1.6-3.12,3.17-4.73,4.7c-4.06,3.85-10.19,3.82-14.02-0.03c-3.82-3.85-3.85-10,0.05-14.01c3.4-3.5,6.91-6.89,10.36-10.33
		c0.47-0.47,0.92-0.96,1.48-1.56c-1.99-2-3.89-3.92-5.8-5.83c-1.92-1.92-3.88-3.81-5.78-5.74c-4.11-4.17-4.23-10.33-0.31-14.28
		c3.94-3.97,10.12-3.93,14.27,0.2c3.85,3.83,7.6,7.76,11.54,11.79c0.7-0.64,1.2-1.07,1.66-1.52c3.37-3.35,6.74-6.71,10.11-10.06
		c4.38-4.33,10.52-4.49,14.54-0.38c3.97,4.05,3.68,10.26-0.64,14.55C83.92,49.83,80.25,53.57,76.43,57.42z"/>
	<path d="M231.8,62.95c4.18-3.6,7.96-6.85,11.75-10.11c8.27-7.13,16.54-14.28,24.82-21.4c4.65-4,10.77-3.7,14.53,0.68
		c3.64,4.24,2.98,10.42-1.56,14.34c-13.97,12.06-27.95,24.11-41.93,36.15c-5.1,4.39-11.36,4.25-16.11-0.51
		c-5.84-5.85-11.61-11.79-17.33-17.76c-3.88-4.05-3.76-10.22,0.13-14c3.97-3.86,10.13-3.78,14.14,0.25
		c3.44,3.45,6.83,6.96,10.21,10.47C230.96,61.6,231.32,62.27,231.8,62.95z"/>
	<path d="M223.53,292.54c6.9,0,13.59,0,20.4,0c0,6.73,0,13.37,0,20.19c-6.76,0-13.55,0-20.4,0
		C223.53,306,223.53,299.36,223.53,292.54z"/>
	<path d="M223.57,217.41c6.83,0,13.58,0,20.41,0c0,6.78,0,13.43,0,20.22c-6.8,0-13.55,0-20.41,0
		C223.57,230.95,223.57,224.31,223.57,217.41z"/>
	<path d="M223.6,255.01c6.77,0,13.47,0,20.31,0c0,6.66,0,13.29,0,20.1c-6.69,0-13.43,0-20.31,0
		C223.6,268.51,223.6,261.88,223.6,255.01z"/>
</g>
</svg>
